#N canvas 740 144 836 599 10;
#X obj -144 163 * 2;
#X floatatom -144 195 5 0 0 0 - - -;
#X obj -29 89 b;
#X floatatom -144 82 5 0 0 0 - - -;
#X obj -144 106 / 44100;
#X obj -144 134 *;
#X floatatom -77 153 5 0 0 0 - - -;
#X obj -77 124 3.14159;
#X obj -144 230 outlet;
#X obj -144 47 inlet;
#X text -100 43 takes f0 as input;
#X text -98 230 outputs w0;
#X text -175 4 w0 = (2PI * (f0/44100));
#X connect 0 0 1 0;
#X connect 1 0 8 0;
#X connect 2 0 7 0;
#X connect 3 0 4 0;
#X connect 4 0 5 0;
#X connect 5 0 0 0;
#X connect 6 0 5 1;
#X connect 7 0 6 0;
#X connect 9 0 3 0;
#X connect 9 0 2 0;
