#N canvas 65 81 450 300 10;
#X msg 133 35 0 128;
#X msg 77 35 0 10;
#X floatatom 22 38 5 0 0 0 - - -, f 5;
#N canvas 712 368 897 660 normalization 1;
#X obj 153 39 inlet;
#X obj 153 74 unpack 0 0;
#X obj 18 39 inlet;
#X obj 484 39 inlet;
#X obj 484 74 unpack 0 0;
#X floatatom 484 109 5 0 0 0 - - -, f 5;
#X floatatom 548 111 5 0 0 0 - - -, f 5;
#X floatatom 18 74 5 0 0 0 - - -, f 5;
#X floatatom 153 109 5 0 0 0 - - -, f 5;
#X floatatom 232 106 5 0 0 0 - - -, f 5;
#X obj 153 141 -;
#X obj 484 141 -;
#X obj 154 259 /;
#X floatatom 154 294 5 0 0 0 - - -, f 5;
#X floatatom 20 294 5 0 0 0 - - -, f 5;
#X obj 18 173 *;
#X obj 18 106 -;
#X obj 20 259 +;
#X text 232 73 old max \, old min (max \, min);
#X text 568 75 new max \, new min (max' \, min');
#X obj 20 326 outlet;
#X floatatom 18 208 5 0 0 0 - - -, f 5;
#X floatatom 153 176 5 0 0 0 - - -, f 5;
#X floatatom 490 195 5 0 0 0 - - -, f 5;
#X floatatom 18 141 5 0 0 0 - - -, f 5;
#X connect 0 0 1 0;
#X connect 1 0 8 0;
#X connect 1 1 9 0;
#X connect 2 0 7 0;
#X connect 3 0 4 0;
#X connect 4 0 5 0;
#X connect 4 1 6 0;
#X connect 5 0 11 0;
#X connect 5 0 17 1;
#X connect 6 0 11 1;
#X connect 7 0 16 0;
#X connect 8 0 10 0;
#X connect 8 0 16 0;
#X connect 9 0 10 1;
#X connect 10 0 22 0;
#X connect 11 0 23 0;
#X connect 12 0 13 0;
#X connect 13 0 15 1;
#X connect 14 0 20 0;
#X connect 15 0 21 0;
#X connect 16 0 24 0;
#X connect 17 0 14 0;
#X connect 21 0 17 0;
#X connect 22 0 12 1;
#X connect 23 0 12 0;
#X connect 24 0 15 0;
#X restore 75 87 pd normalization;
#X floatatom 70 128 5 0 0 0 - - -, f 5;
#X obj 25 14 bng 15 250 50 0 empty empty empty 17 7 0 10 -262144 -1
-1;
#X connect 0 0 3 2;
#X connect 1 0 3 1;
#X connect 2 0 3 0;
#X connect 3 0 4 0;
#X connect 5 0 2 0;
