#N canvas 95 509 1024 528 10;
#X obj 339 208 arduino;
#X obj 215 39 inlet;
#X obj 215 61 unpack 0 0 0 0 0 0;
#X msg 59 60 open \$1;
#X msg 136 60 close;
#X obj 339 245 route analog;
#X obj 59 35 inlet;
#X obj 483 321 mapping/resample 100;
#X obj 483 297 mapping/resample 100;
#X obj 483 371 mapping/resample 100;
#X obj 483 346 mapping/resample 100;
#X obj 483 421 mapping/resample 100;
#X obj 483 396 mapping/resample 100;
#X floatatom 650 389 5 0 0 0 - - -, f 5;
#X floatatom 650 437 5 0 0 0 - - -, f 5;
#X floatatom 650 414 5 0 0 0 - - -, f 5;
#X floatatom 650 320 5 0 0 0 - - -, f 5;
#X floatatom 650 366 5 0 0 0 - - -, f 5;
#X floatatom 650 342 5 0 0 0 - - -, f 5;
#X obj 700 461 outlet;
#X obj 649 462 outlet;
#X obj 750 460 outlet;
#X obj 805 461 outlet;
#X obj 855 461 outlet;
#X obj 905 460 outlet;
#X floatatom 10 42 5 0 0 0 - - -, f 5;
#X msg 419 51 analogIns 0 \$1;
#X msg 419 76 analogIns 1 \$1;
#X msg 419 101 analogIns 2 \$1;
#X msg 418 126 analogIns 3 \$1;
#X msg 419 151 analogIns 4 \$1;
#X msg 419 176 analogIns 5 \$1;
#X obj 340 272 route 0 1 2 3 4 5;
#X msg 202 206 analogIns 0 1;
#X connect 0 0 5 0;
#X connect 1 0 2 0;
#X connect 2 0 31 0;
#X connect 2 1 30 0;
#X connect 2 2 29 0;
#X connect 2 3 28 0;
#X connect 2 4 27 0;
#X connect 2 5 26 0;
#X connect 3 0 0 0;
#X connect 4 0 0 0;
#X connect 5 0 32 0;
#X connect 6 0 3 0;
#X connect 7 0 18 0;
#X connect 8 0 16 0;
#X connect 9 0 13 0;
#X connect 10 0 17 0;
#X connect 11 0 14 0;
#X connect 12 0 15 0;
#X connect 13 0 21 0;
#X connect 14 0 20 0;
#X connect 15 0 19 0;
#X connect 16 0 24 0;
#X connect 17 0 22 0;
#X connect 18 0 23 0;
#X connect 25 0 3 0;
#X connect 26 0 0 0;
#X connect 27 0 0 0;
#X connect 28 0 0 0;
#X connect 29 0 0 0;
#X connect 30 0 0 0;
#X connect 31 0 0 0;
#X connect 32 0 11 0;
#X connect 32 1 12 0;
#X connect 32 2 9 0;
#X connect 32 3 10 0;
#X connect 32 4 7 0;
#X connect 32 5 8 0;
#X connect 33 0 0 0;
