#N canvas 1066 188 612 380 10;
#X obj 343 297 outlet;
#X text 340 315 b0 (ff1);
#X text 428 317 b1 (ff2);
#X text 535 315 b2 (ff3);
#X text 137 313 a1 (fb1);
#X text 258 314 a2 (fb2);
#X obj 433 298 outlet;
#X obj 141 292 outlet;
#X obj 258 293 outlet;
#X obj 536 295 outlet;
#X obj 333 153 *;
#X floatatom 427 208 5 0 0 0 - - -;
#X obj 389 141 * -1;
#X obj 536 193 *;
#X obj 126 135 cos;
#X obj 126 168 * -2;
#X text 4 -14 takes input Q (user defined variable);
#X text 360 -16 takes input alpha (from other calculator);
#X text 150 5 takes input w0 (from other calculator);
#X floatatom 353 211 5 0 0 0 - - -;
#X floatatom 555 223 6 0 0 0 - - -;
#X floatatom 155 223 5 0 0 0 - - -;
#X floatatom 274 220 5 0 0 0 - - -;
#X obj 408 178 loadbang;
#X obj 276 48 bang;
#X obj 252 190 -;
#X obj 252 146 1;
#X obj 33 32 inlet;
#X obj 419 16 inlet;
#X obj 217 29 inlet;
#X text 25 -46 this patch calculates coefficients for a pure data biquad
object \, for a bandpass filter;
#X obj 26 161 1;
#X obj 84 221 +;
#X obj 125 267 /;
#X obj 261 262 /;
#X obj 346 263 /;
#X obj 427 266 /;
#X obj 530 267 /;
#X connect 10 0 19 0;
#X connect 10 0 35 0;
#X connect 11 0 36 0;
#X connect 12 0 13 0;
#X connect 13 0 20 0;
#X connect 13 0 37 0;
#X connect 14 0 15 0;
#X connect 15 0 21 0;
#X connect 15 0 33 0;
#X connect 23 0 11 0;
#X connect 24 0 10 0;
#X connect 24 0 13 0;
#X connect 24 0 26 0;
#X connect 24 0 31 0;
#X connect 25 0 22 0;
#X connect 25 0 34 0;
#X connect 26 0 25 0;
#X connect 27 0 10 0;
#X connect 27 0 12 0;
#X connect 28 0 10 1;
#X connect 28 0 13 1;
#X connect 28 0 25 1;
#X connect 28 0 24 0;
#X connect 28 0 32 1;
#X connect 29 0 14 0;
#X connect 29 0 24 0;
#X connect 31 0 32 0;
#X connect 32 0 33 1;
#X connect 32 0 34 1;
#X connect 32 0 35 1;
#X connect 32 0 36 1;
#X connect 32 0 37 1;
#X connect 33 0 7 0;
#X connect 34 0 8 0;
#X connect 35 0 0 0;
#X connect 36 0 6 0;
#X connect 37 0 9 0;
