#N canvas 1173 92 706 590 10;
#X text 34 12 this patch calculates coefficients for a pure data biquad
object \, for a highshelf filter;
#X obj 31 86 inlet;
#X text 1 65 takes input A (from other calculator);
#X obj 282 91 inlet;
#X text 316 94 takes input w0 (from other calculator);
#X obj 576 70 inlet;
#X text 437 51 takes input alpha (from other calculator);
#X obj 322 544 outlet;
#X obj 467 542 outlet;
#X obj 178 540 outlet;
#X obj 103 538 outlet;
#X obj 611 541 outlet;
#X obj 40 134 + 1;
#X obj 77 136 - 1;
#X text 45 119 A+1;
#X text 80 122 A-1;
#X obj 282 122 cos;
#X text 306 119 cos(w0);
#X obj 125 136 sqrt;
#X text 129 122 sqrt(A);
#X obj 367 379 *;
#X obj 367 401 * 2;
#X obj 328 381 *;
#X obj 352 422 +;
#X obj 337 444 +;
#X obj 322 466 *;
#X obj 10 134 + 0;
#X text 8 118 A;
#X obj 497 334 *;
#X obj 482 398 +;
#X obj 467 421 *;
#X obj 467 446 * -2;
#X obj 656 355 *;
#X obj 656 378 * 2;
#X obj 624 364 *;
#X obj 641 398 -;
#X obj 626 419 +;
#X obj 611 442 *;
#X obj 118 386 *;
#X obj 103 407 -;
#X obj 103 430 * 2;
#X obj 208 383 *;
#X obj 208 403 * 2;
#X obj 172 386 *;
#X obj 193 424 -;
#X obj 178 447 -;
#X text 321 561 b0 (ff1);
#X text 460 560 b1 (ff2);
#X text 608 558 b2 (ff3);
#X text 99 555 a1 (fb1);
#X text 175 557 a2 (fb2);
#X obj 561 207 b;
#X obj 56 379 *;
#X obj 56 399 * 2;
#X obj 2 389 *;
#X obj 26 443 -;
#X obj 41 420 +;
#X text 8 443 a0;
#X obj 204 149 b;
#X obj 204 149 b;
#X obj 103 509 /;
#X obj 178 518 /;
#X obj 322 522 /;
#X obj 467 521 /;
#X obj 611 519 /;
#X connect 1 0 12 0;
#X connect 1 0 13 0;
#X connect 1 0 18 0;
#X connect 1 0 26 0;
#X connect 3 0 16 0;
#X connect 5 0 20 1;
#X connect 5 0 32 1;
#X connect 5 0 41 1;
#X connect 5 0 51 0;
#X connect 5 0 52 1;
#X connect 12 0 24 0;
#X connect 12 0 28 0;
#X connect 12 0 36 0;
#X connect 12 0 38 0;
#X connect 12 0 45 0;
#X connect 12 0 55 0;
#X connect 13 0 22 0;
#X connect 13 0 29 0;
#X connect 13 0 34 0;
#X connect 13 0 39 0;
#X connect 13 0 43 0;
#X connect 13 0 54 0;
#X connect 16 0 22 1;
#X connect 16 0 28 1;
#X connect 16 0 34 1;
#X connect 16 0 38 1;
#X connect 16 0 43 1;
#X connect 16 0 54 1;
#X connect 16 0 58 0;
#X connect 16 0 58 0;
#X connect 18 0 20 0;
#X connect 18 0 32 0;
#X connect 18 0 41 0;
#X connect 18 0 52 0;
#X connect 20 0 21 0;
#X connect 21 0 23 1;
#X connect 22 0 23 0;
#X connect 23 0 24 1;
#X connect 24 0 25 1;
#X connect 25 0 62 0;
#X connect 26 0 25 0;
#X connect 26 0 30 0;
#X connect 26 0 37 0;
#X connect 28 0 29 1;
#X connect 29 0 30 1;
#X connect 30 0 31 0;
#X connect 31 0 63 0;
#X connect 32 0 33 0;
#X connect 33 0 35 1;
#X connect 34 0 35 0;
#X connect 35 0 36 1;
#X connect 36 0 37 1;
#X connect 37 0 64 0;
#X connect 38 0 39 1;
#X connect 39 0 40 0;
#X connect 40 0 60 0;
#X connect 41 0 42 0;
#X connect 42 0 44 1;
#X connect 43 0 44 0;
#X connect 44 0 45 1;
#X connect 45 0 61 0;
#X connect 51 0 32 0;
#X connect 51 0 20 0;
#X connect 51 0 41 0;
#X connect 51 0 52 0;
#X connect 52 0 53 0;
#X connect 53 0 56 1;
#X connect 54 0 56 0;
#X connect 55 0 60 1;
#X connect 55 0 61 1;
#X connect 55 0 62 1;
#X connect 55 0 63 1;
#X connect 55 0 64 1;
#X connect 56 0 55 1;
#X connect 58 0 54 0;
#X connect 58 0 38 0;
#X connect 58 0 43 0;
#X connect 58 0 22 0;
#X connect 58 0 28 0;
#X connect 58 0 34 0;
#X connect 58 0 54 0;
#X connect 58 0 38 0;
#X connect 58 0 43 0;
#X connect 58 0 22 0;
#X connect 58 0 28 0;
#X connect 58 0 34 0;
#X connect 60 0 10 0;
#X connect 61 0 9 0;
#X connect 62 0 7 0;
#X connect 63 0 8 0;
#X connect 64 0 11 0;
