#N canvas 850 7 683 460 10;
#X obj 41 40 inlet~;
#X obj 40 244 +~;
#X obj 41 413 outlet~;
#X obj 41 312 *~;
#X obj 122 363 hsl 128 15 0 1 0 0 empty empty empty -2 -8 0 10 -262144
-1 -1 9500 1;
#X obj 113 210 *~;
#X obj 143 167 pow;
#X obj 70 74 / 44.1;
#X obj 128 16 hsl 64 15 1 128 0 0 empty empty empty -2 -8 0 10 -262144
-1 -1 2200 1;
#X msg 227 64 0.995;
#X text 267 61 Pole radius;
#X text 198 13 Delay;
#X floatatom 243 97 5 0 0 0 - - -;
#X floatatom 223 139 5 0 0 0 - - -;
#X text 258 138 Delay in ms;
#X text 276 95 Delay in samples;
#X floatatom 173 201 5 0 0 0 - - -;
#X text 208 202 Filter coefficient;
#X text 258 360 Filter gain;
#X obj 70 121 delread~ \$0-combdelay;
#X obj 114 270 delwrite~ \$0-combdelay 1000;
#X obj 38 7 block~ 1;
#X connect 0 0 1 0;
#X connect 1 0 3 0;
#X connect 1 0 20 0;
#X connect 3 0 2 0;
#X connect 4 0 3 1;
#X connect 5 0 1 1;
#X connect 6 0 5 1;
#X connect 6 0 16 0;
#X connect 7 0 13 0;
#X connect 7 0 19 0;
#X connect 8 0 7 0;
#X connect 8 0 6 1;
#X connect 8 0 9 0;
#X connect 8 0 12 0;
#X connect 9 0 6 0;
#X connect 19 0 5 0;
