#N canvas 583 45 683 460 10;
#X obj 41 40 inlet~;
#X obj 42 181 +~;
#X obj 41 413 outlet~;
#X obj 41 312 *~;
#X obj 124 362 hsl 128 15 0 127 0 0 empty empty empty -2 -8 0 10 -262144
-1 -1 0 1;
#X obj 114 270 delwrite~ $comb-delay 1000;
#X obj 70 151 *~;
#X obj 70 121 delread~ $comb-delay;
#X obj 213 134 pow;
#X obj 70 74 / 44.1;
#X obj 128 16 hsl 128 15 0 127 0 0 empty empty empty -2 -8 0 10 -262144
-1 -1 0 1;
#X msg 243 87 0.995;
#X text 283 84 Pole radius;
#X text 262 16 Delay;
#X floatatom 252 53 5 0 0 0 - - -;
#X floatatom 144 91 5 0 0 0 - - -;
#X text 74 90 Delay in ms;
#X text 285 51 Delay in samples;
#X floatatom 213 171 5 0 0 0 - - -;
#X text 248 172 Filter coefficient;
#X text 258 360 Filter gain;
#X connect 0 0 1 0;
#X connect 1 0 3 0;
#X connect 1 0 5 0;
#X connect 3 0 2 0;
#X connect 4 0 3 1;
#X connect 6 0 1 1;
#X connect 7 0 6 0;
#X connect 8 0 6 1;
#X connect 8 0 18 0;
#X connect 9 0 7 0;
#X connect 9 0 15 0;
#X connect 10 0 9 0;
#X connect 10 0 8 1;
#X connect 10 0 11 0;
#X connect 10 0 14 0;
#X connect 11 0 8 0;
