#N canvas 43 14 434 363 10;
#X obj -242 155 * 2;
#X floatatom -242 187 5 0 0 0 - - -;
#X obj -127 81 b;
#X floatatom -242 74 5 0 0 0 - - -;
#X obj -242 98 / 44100;
#X obj -242 126 *;
#X floatatom -175 142 5 0 0 0 - - -;
#X obj -64 234 sin;
#X obj 1 116 * 2;
#X obj -14 251 /;
#X floatatom -14 281 5 0 0 0 - - -;
#X floatatom 17 155 5 0 0 0 - - -;
#X text 2 22 Q;
#X text -265 -11 alpha calculation (sin(w0) / 2Q);
#X text 26 284 alpha;
#X text -238 25 w0 (2PI * (f0/44100));
#X obj -14 318 outlet;
#X obj -242 46 inlet;
#X obj 1 41 inlet;
#X obj -175 116 3.14159;
#X text -203 45 takes f0 as input;
#X text 38 41 takes Q as input;
#X connect 0 0 1 0;
#X connect 1 0 7 0;
#X connect 2 0 9 0;
#X connect 2 0 19 0;
#X connect 3 0 4 0;
#X connect 4 0 5 0;
#X connect 5 0 0 0;
#X connect 6 0 5 1;
#X connect 7 0 9 0;
#X connect 8 0 9 1;
#X connect 8 0 11 0;
#X connect 9 0 10 0;
#X connect 10 0 16 0;
#X connect 17 0 3 0;
#X connect 17 0 2 0;
#X connect 18 0 8 0;
#X connect 18 0 2 0;
#X connect 19 0 6 0;
